<?xml version="1.0" encoding="UTF-8"?>
<svg id="Layer_1" data-name="Layer 1" xmlns="http://www.w3.org/2000/svg" version="1.1" viewBox="0 0 396.89 397.21">
  <defs>
    <style>
      .cls-1 {
        fill: #000;
        stroke-width: 0px;
      }
    </style>
  </defs>
  <g id="UtenBK">
    <g>
      <path class="cls-1" d="M198.23,394.22c-37.52,0-75.05-.28-112.57.11-22.45.23-38.82-14.25-44.65-33.14-6.35-20.57-10-41.85-14.88-62.8-7.29-31.31-14.37-62.67-21.34-94.06-4.89-22.05-.73-41.81,16.19-57.73,7-6.59,15.55-10.16,25.27-10.34,8.91-.16,17.83-.2,26.74-.05,2.92.05,3.92-.81,4.07-3.77,1.28-24.75,8.12-47.92,21.05-69.06,17.8-29.12,42.5-49.64,76.2-57.5,29.65-6.92,57.76-1.77,83.24,14.83,34.83,22.69,53.61,55.86,60.64,96.25.91,5.25,1.53,10.54,1.65,15.86.06,2.55,1.01,3.43,3.6,3.38,7.85-.15,15.7.04,23.55-.07,17.93-.25,30.62,8.4,39.33,23.42,8.15,14.04,9.35,29.14,5.79,44.77-11.32,49.74-22.64,99.49-33.98,149.22-3.02,13.23-9.07,24.6-20.31,32.79-7.72,5.62-16.39,7.92-25.82,7.91-37.92-.02-75.85-.01-113.77-.01ZM198.73,168.66c-49.35,0-98.71,0-148.06,0-10.28,0-14.38,3.85-15.29,14.18-.45,5.1.26,10.09,1.38,15.03,9.19,40.68,18.36,81.37,27.66,122.02,2.4,10.48,4.15,21.13,7.54,31.36,2.52,7.6,6.57,10.31,14.45,10.31,37.25,0,74.5,0,111.75,0,37.91,0,75.83-.06,113.74.08,5.01.02,8.28-2.04,10.87-5.97,2.32-3.53,3.28-7.52,4.19-11.53,7.35-32.38,14.79-64.74,22-97.15,4.29-19.32,9.33-38.47,12.69-57.99.6-3.48.35-6.91-.38-10.3-1.59-7.29-5.68-10.03-14.87-10.03-49.22-.01-98.44,0-147.67,0ZM198.48,136.14c28.33,0,56.65,0,84.98,0,2.21,0,4.11.34,3.81-3.2-2.65-31.89-14.68-59.08-39.74-79.72-26.75-22.03-64.82-23.6-93.06-3.65-27.94,19.74-41.22,47.77-44.61,81.09-.56,5.55-1.71,5.48,5.24,5.48,27.79,0,55.59,0,83.38,0Z"/>
      <path class="cls-1" d="M259.12,268.08c0-16.76-.04-33.52.02-50.29.02-6.51,2.85-11.55,8.6-14.7,5.49-3.01,11.08-2.69,16.31.58,5.73,3.58,7.73,9.15,7.72,15.7-.03,27.54-.01,55.08-.01,82.61,0,5.59.13,11.18-.05,16.76-.28,8.98-6.21,15.68-14.31,16.47-10.21.99-18.16-6.01-18.24-16.44-.13-16.89-.04-33.79-.04-50.69Z"/>
      <path class="cls-1" d="M133.79,268.46c0,16.9.14,33.79-.05,50.69-.14,12.01-12.08,19.73-22.77,14.85-7.13-3.26-9.78-9.3-9.78-16.85.03-26.08,0-52.15.01-78.23,0-7.05-.17-14.11.06-21.15.29-8.75,5.52-14.9,13.52-16.43,6.95-1.33,14.29,2.51,17.46,9.09,1.31,2.71,1.58,5.58,1.57,8.54-.03,16.5-.01,32.99-.01,49.49h-.02Z"/>
      <path class="cls-1" d="M212.8,268.47c0,16.76.12,33.52-.04,50.28-.12,12.14-11.65,20.01-22.45,15.39-7.19-3.07-10.14-9.01-10.14-16.6,0-18.89,0-37.78,0-56.67,0-14.23-.15-28.47.05-42.7.18-12.74,11.85-20.64,22.85-15.6,6.58,3.01,9.72,8.42,9.73,15.61.03,16.76,0,33.52,0,50.28Z"/>
    </g>
  </g>
</svg>