<?xml version="1.0" encoding="UTF-8"?>
<svg id="Layer_1" data-name="Layer 1" xmlns="http://www.w3.org/2000/svg" version="1.1" viewBox="0 0 989.7 989.7">
  <defs>
    <style>
      .cls-1 {
        fill: #b512b1;
        stroke-width: 0px;
      }
    </style>
  </defs>
  <g>
    <circle class="cls-1" cx="591.4" cy="878.4" r="28.9"/>
    <circle class="cls-1" cx="643.9" cy="842" r="11.8"/>
    <path class="cls-1" d="M532.7,859.6c-6.3,1.7-10,8.1-8.3,14.4,1.7,6.3,8.1,10,14.4,8.3,6.3-1.7,10-8.1,8.3-14.4-1.7-6.3-8.1-10-14.4-8.3Z"/>
    <circle class="cls-1" cx="380.8" cy="878.4" r="28.9"/>
    <circle class="cls-1" cx="444.5" cy="873.1" r="11.8"/>
    <circle class="cls-1" cx="336.4" cy="844.1" r="11.8" transform="translate(-376.7 280.9) rotate(-30)"/>
    <circle class="cls-1" cx="198.5" cy="773" r="28.9" transform="translate(-560.4 525.9) rotate(-57.6)"/>
    <circle class="cls-1" cx="256.3" cy="800.2" r="11.8" transform="translate(-582.5 850.1) rotate(-75.6)"/>
    <circle class="cls-1" cx="177.3" cy="721" r="11.8" transform="translate(-404.1 259.2) rotate(-37.7)"/>
    <circle class="cls-1" cx="93.4" cy="590.7" r="28.9" transform="translate(-11 1.8) rotate(-1.1)"/>
    <circle class="cls-1" cx="129.8" cy="643.1" r="11.8" transform="translate(-271.5 124.1) rotate(-26.3)"/>
    <circle class="cls-1" cx="100.9" cy="535" r="11.8"/>
    <circle class="cls-1" cx="93.4" cy="380.1" r="28.9" transform="translate(-105.1 42.8) rotate(-16.7)"/>
    <circle class="cls-1" cx="98.7" cy="443.8" r="11.8"/>
    <circle class="cls-1" cx="127.8" cy="335.7" r="11.8"/>
    <circle class="cls-1" cx="198.8" cy="197.8" r="28.9"/>
    <circle class="cls-1" cx="171.6" cy="255.6" r="11.8"/>
    <circle class="cls-1" cx="250.8" cy="176.5" r="11.8"/>
    <circle class="cls-1" cx="381.2" cy="92.6" r="28.9" transform="translate(-9.8 61.4) rotate(-9.1)"/>
    <circle class="cls-1" cx="328.7" cy="129.1" r="11.8"/>
    <circle class="cls-1" cx="436.9" cy="100.2" r="11.8"/>
    <circle class="cls-1" cx="591.8" cy="92.7" r="28.9" transform="translate(32.8 308) rotate(-30)"/>
    <circle class="cls-1" cx="528" cy="98" r="11.8" transform="translate(56.9 355.8) rotate(-39.2)"/>
    <circle class="cls-1" cx="636.2" cy="127.1" r="11.8" transform="translate(21.6 334.8) rotate(-30)"/>
    <circle class="cls-1" cx="774.1" cy="198" r="28.9"/>
    <path class="cls-1" d="M724.6,179.2c4.6-4.6,4.6-12.1,0-16.7-4.6-4.6-12.1-4.6-16.7,0s-4.6,12.1,0,16.7c4.6,4.6,12.1,4.6,16.7,0Z"/>
    <path class="cls-1" d="M787,241.7c-4.6,4.6-4.6,12.1,0,16.7s12.1,4.6,16.7,0,4.6-12.1,0-16.7c-4.6-4.6-12.1-4.6-16.7,0Z"/>
    <circle class="cls-1" cx="879.2" cy="380.5" r="28.9"/>
    <path class="cls-1" d="M845.8,339.4c6.3-1.7,10-8.1,8.3-14.4s-8.1-10-14.4-8.3-10,8.1-8.3,14.4c1.7,6.3,8.1,10,14.4,8.3Z"/>
    <circle class="cls-1" cx="871.7" cy="436.1" r="11.8"/>
    <circle class="cls-1" cx="879.1" cy="591.1" r="28.9"/>
    <path class="cls-1" d="M870.8,538.7c6.3,1.7,12.8-2,14.4-8.3,1.7-6.3-2-12.8-8.3-14.4s-12.8,2-14.4,8.3c-1.7,6.3,2,12.8,8.3,14.4Z"/>
    <circle class="cls-1" cx="844.8" cy="635.4" r="11.8"/>
    <path class="cls-1" d="M744.2,747l-29.6-81.1,48.9,15.2-12.1-42.4,42.8-10.8-36.1-33.5,82.3-11.5-66.2-55.4,50-11.2-31.7-30.7,31.7-30.8-48-10.9,65.5-51.1-85-14.9,37.7-34.7-42.8-10.8,12-42.5-47.1,14.6,31.2-77-81.1,29.6,15.2-48.9-42.4,12.1-10.8-42.8-33.5,36.1-11.5-82.3-55.4,66.2-11.2-50-30.7,31.7-30.8-31.7-10.9,48-51.1-65.5-14.9,85-34.7-37.7-10.8,42.8-42.5-12,14.6,47.1-77-31.2,29.6,81.1-48.9-15.2,12.1,42.4-42.8,10.8,36.1,33.5-82.3,11.5,66.2,55.4-50,11.2,31.7,30.7-31.7,30.8,48,10.9-65.5,51.1,85,14.9-37.7,34.7,42.8,10.8-12,42.5,47.1-14.6-31.2,77,81.1-29.6-15.2,48.9,42.4-12.1,10.8,42.8,33.5-36.1,11.5,82.3,55.4-66.2,11.2,50,30.7-31.7,30.8,31.7,10.9-48,51.1,65.5,14.9-85,34.7,37.7,10.8-42.8,42.5,12-14.6-47.1,77,31.2h0ZM408.5,551.4c-6.6,11.2-21,15-32.3,8.4-3.1-1.8-5.6-4.2-7.5-7-4.1-10.7.1-23.1,10.4-28.9,10.8-6.1,24.3-2.8,31.1,7.2,2.5,6.5,2.1,13.9-1.7,20.3h0ZM564.1,419.7c6.6-11.2,21-15,32.3-8.4,3.1,1.8,5.6,4.2,7.5,7,4.1,10.7-.1,23.1-10.4,28.9-10.8,6.1-24.3,2.8-31.1-7.2-2.5-6.5-2.1-13.9,1.7-20.4h0ZM350.8,485c1.8-11.3,11.6-20,23.5-19.9,12.4,0,22.4,9.7,23.3,21.8-1.1,6.8-5.2,13.1-11.6,16.8-11.3,6.4-25.7,2.5-32.2-8.9-1.8-3.1-2.8-6.5-3-9.8h0ZM369.3,417.3c7.2-8.9,20.1-11.5,30.3-5.5,10.7,6.3,14.6,19.6,9.3,30.5-4.4,5.4-11,8.8-18.5,8.7-13,0-23.5-10.7-23.4-23.8,0-3.6.9-7,2.3-10h0ZM621.8,486.2c-1.8,11.3-11.7,19.9-23.5,19.9-12.4,0-22.4-9.7-23.3-21.8,1.1-6.8,5.2-13.1,11.6-16.8,11.3-6.4,25.7-2.5,32.2,8.9,1.8,3.1,2.8,6.5,3,9.8h0ZM563.7,528.8c4.4-5.4,11-8.8,18.5-8.7,13,0,23.5,10.7,23.4,23.8,0,3.6-.9,7-2.3,10-7.2,8.9-20.1,11.5-30.3,5.5-10.7-6.2-14.6-19.6-9.3-30.5h0ZM646.6,528.6c1.5-5.8,7.5-9.2,13.3-7.7s9.2,7.5,7.7,13.3-7.5,9.2-13.3,7.7-9.2-7.5-7.7-13.3h0ZM725.5,549.8c-3.1,11.6-15.1,18.5-26.7,15.4-11.6-3.1-18.5-15.1-15.4-26.7,3.1-11.6,15.1-18.5,26.7-15.4s18.5,15.1,15.4,26.7ZM654.3,429.4c5.8-1.5,11.7,1.9,13.3,7.7s-1.9,11.7-7.7,13.3c-5.8,1.5-11.7-1.9-13.3-7.7-1.5-5.8,1.9-11.7,7.7-13.3ZM710.2,448.3c-11.6,3.1-23.6-3.8-26.7-15.4-3.1-11.6,3.8-23.6,15.4-26.7,11.6-3.1,23.6,3.8,26.7,15.4,3.1,11.6-3.8,23.6-15.4,26.7ZM619,368.3c-4.2,4.2-11.1,4.2-15.3,0-4.2-4.2-4.2-11.1,0-15.3,4.2-4.2,11.1-4.2,15.3,0s4.2,11.1,0,15.3h0ZM443.4,325.3c-5.8,1.5-11.7-1.9-13.3-7.7s1.9-11.7,7.7-13.3c5.8-1.5,11.7,1.9,13.3,7.7,1.5,5.8-1.9,11.7-7.7,13.3h0ZM448,378.3c6.1,10.8,2.8,24.3-7.2,31.1-6.5,2.5-13.9,2.1-20.3-1.7-11.2-6.6-15-21-8.4-32.3,1.8-3.1,4.2-5.6,7-7.5,10.7-4.1,23.1.1,28.9,10.4h0ZM369,352.9c4.2,4.2,4.2,11.1,0,15.3-4.2,4.2-11.1,4.2-15.3,0s-4.2-11.1,0-15.3,11.1-4.2,15.3,0h0ZM326,442.5c-1.5,5.8-7.5,9.2-13.3,7.7s-9.2-7.5-7.6-13.3,7.5-9.2,13.3-7.7,9.2,7.5,7.7,13.3h0ZM247,421.3c3.1-11.6,15.1-18.5,26.7-15.4,11.6,3.1,18.5,15.1,15.4,26.7-3.1,11.6-15.1,18.5-26.7,15.4s-18.5-15.1-15.4-26.7h0ZM318.3,541.7c-5.8,1.5-11.7-1.9-13.3-7.7-1.5-5.8,1.9-11.7,7.7-13.3,5.8-1.5,11.7,1.9,13.3,7.7,1.5,5.8-1.9,11.7-7.7,13.3h0ZM262.4,522.9c11.6-3.1,23.6,3.8,26.7,15.4,3.1,11.6-3.8,23.6-15.4,26.7-11.6,3.1-23.6-3.8-26.7-15.4-3.1-11.6,3.8-23.6,15.4-26.7ZM353.6,602.8c4.2-4.2,11.1-4.2,15.3,0,4.2,4.2,4.2,11.1,0,15.3-4.2,4.2-11.1,4.2-15.3,0s-4.2-11.1,0-15.3h0ZM529.2,645.9c5.8-1.5,11.7,1.9,13.3,7.7,1.5,5.8-1.9,11.7-7.7,13.3s-11.7-1.9-13.3-7.7c-1.5-5.8,1.9-11.7,7.7-13.3ZM524.6,592.8c-6.1-10.8-2.8-24.3,7.2-31.1,6.5-2.5,13.9-2.1,20.3,1.7,11.2,6.6,15,21,8.4,32.3-1.8,3.1-4.2,5.6-7,7.5-10.7,4.1-23.1-.1-28.9-10.4h0ZM603.6,618.3c-4.2-4.2-4.2-11.1,0-15.3,4.2-4.2,11.1-4.2,15.3,0,4.2,4.2,4.2,11.1,0,15.3s-11.1,4.2-15.3,0h0ZM661.5,310.5c8.5,8.5,8.5,22.3,0,30.8-8.5,8.5-22.3,8.5-30.8,0s-8.5-22.3,0-30.8c8.5-8.5,22.3-8.5,30.8,0ZM523.8,261.7c3.1-11.6,15.1-18.5,26.7-15.4,11.6,3.1,18.5,15.1,15.4,26.7-3.1,11.6-15.1,18.5-26.7,15.4-11.6-3.1-18.5-15.1-15.4-26.7h0ZM521.7,312c1.5-5.8,7.5-9.2,13.3-7.6s9.2,7.5,7.7,13.3-7.5,9.2-13.3,7.7-9.2-7.5-7.7-13.3h0ZM544.5,366.2c3.6,0,7,.9,10,2.3,8.9,7.2,11.5,20.1,5.5,30.3-6.2,10.7-19.6,14.6-30.5,9.3-5.4-4.4-8.8-11-8.7-18.5,0-13,10.7-23.5,23.8-23.4h0ZM477,353.1c3.1-1.8,6.5-2.8,9.8-3,11.3,1.8,20,11.6,19.9,23.5,0,12.4-9.7,22.4-21.8,23.3-6.8-1.1-13.1-5.2-16.8-11.6-6.4-11.3-2.5-25.7,8.9-32.2h0ZM422.3,246.2c11.6-3.1,23.6,3.8,26.7,15.4,3.1,11.6-3.8,23.6-15.4,26.7-11.6,3.1-23.6-3.8-26.7-15.4s3.8-23.6,15.4-26.7ZM311.2,310.3c8.5-8.5,22.3-8.5,30.8,0,8.5,8.5,8.5,22.3,0,30.8s-22.3,8.5-30.8,0c-8.5-8.5-8.5-22.3,0-30.8ZM311,660.6c-8.5-8.5-8.5-22.3,0-30.8,8.5-8.5,22.3-8.5,30.8,0s8.5,22.3,0,30.8c-8.5,8.5-22.3,8.5-30.8,0h0ZM448.8,709.4c-3.1,11.6-15.1,18.5-26.7,15.4-11.6-3.1-18.5-15.1-15.4-26.7,3.1-11.6,15.1-18.5,26.7-15.4,11.6,3.1,18.5,15.1,15.4,26.7ZM450.9,659.1c-1.5,5.8-7.5,9.2-13.3,7.7s-9.2-7.5-7.7-13.3,7.5-9.2,13.3-7.7,9.2,7.5,7.7,13.3h0ZM428.1,604.9c-3.6,0-7-.9-10-2.3-8.9-7.2-11.4-20.1-5.5-30.2,6.2-10.7,19.6-14.6,30.5-9.3,5.4,4.4,8.8,11,8.7,18.5,0,13-10.7,23.5-23.8,23.4h0ZM495.5,618c-3.1,1.8-6.5,2.8-9.8,3-11.3-1.8-20-11.7-19.9-23.5,0-12.4,9.7-22.4,21.8-23.3,6.8,1.1,13.1,5.2,16.8,11.6,6.4,11.3,2.5,25.7-8.9,32.2h0ZM550.3,724.9c-11.6,3.1-23.6-3.8-26.7-15.4-3.1-11.6,3.8-23.6,15.4-26.7,11.6-3.1,23.6,3.8,26.7,15.4,3.1,11.6-3.8,23.6-15.4,26.7ZM630.5,660.8c-8.5-8.5-8.5-22.3,0-30.8s22.3-8.5,30.8,0c8.5,8.5,8.5,22.3,0,30.8s-22.3,8.5-30.8,0Z"/>
    <circle class="cls-1" cx="773.8" cy="773.3" r="28.9"/>
    <path class="cls-1" d="M792.7,707.2c-4.6,4.6-4.6,12.1,0,16.7s12.1,4.6,16.7,0,4.6-12.1,0-16.7-12.1-4.6-16.7,0Z"/>
    <circle class="cls-1" cx="721.8" cy="794.5" r="11.8"/>
  </g>
  <g>
    <path class="cls-1" d="M520.5,979.6l-.3-44.4-44.5.3.3,44.4,44.5-.3ZM481.9,952.5h10.9c0,0,0-11.1,0-11.1h10.5c0,0,0,10.9,0,10.9h10.8c0,0,0,10.4,0,10.4h-10.8c0,0,0,10.8,0,10.8h-10.5c0,0,0-10.7,0-10.7h-10.9c0,0,0-10.4,0-10.4Z"/>
    <path class="cls-1" d="M274.7,927.4l22-38.7-38.6-22-22,38.7,38.6,22ZM254.8,884.7l9.5,5.4,5.4-9.5,9.1,5.2-5.4,9.5,9.4,5.3-5.2,9.1-9.4-5.3-5.3,9.3-9.1-5.2,5.3-9.3-9.5-5.4,5.2-9.1Z"/>
    <path class="cls-1" d="M87.9,759.4l38.3-22.5-22.5-38.3-38.3,22.5,22.5,38.3ZM92.1,712.5l5.5,9.4,9.5-5.5,5.3,9-9.5,5.5,5.5,9.3-9,5.3-5.5-9.3-9.2,5.4-5.3-9,9.2-5.4-5.5-9.4,9-5.3Z"/>
    <path class="cls-1" d="M10.1,520.4l44.5-.3-.3-44.5-44.4.3s.3,44.5.3,44.5ZM37.2,481.9v10.9c0,0,11.1,0,11.1,0v10.5c0,0-10.9,0-10.9,0v10.8c0,0-10.4,0-10.4,0v-10.8c0,0-10.8,0-10.8,0v-10.5c0,0,10.7,0,10.7,0v-10.9c0,0,10.4,0,10.4,0h0Z"/>
    <path class="cls-1" d="M62.3,274.7l38.6,22,22-38.6-38.6-22-22,38.6ZM105,254.8l-5.4,9.5,9.5,5.4-5.2,9.1-9.5-5.4-5.3,9.4-9.1-5.2,5.3-9.4-9.3-5.3,5.2-9.1,9.3,5.3,5.4-9.5,9.1,5.2Z"/>
    <path class="cls-1" d="M230.3,87.9l22.5,38.3,38.3-22.5-22.5-38.3-38.3,22.5ZM277.2,92.1l-9.4,5.5,5.5,9.5-9,5.3-5.5-9.5-9.3,5.5-5.3-9,9.3-5.5-5.4-9.2,9-5.3,5.4,9.2,9.4-5.5,5.3,9Z"/>
    <path class="cls-1" d="M469.3,10.1l.3,44.5,44.5-.3-.3-44.4s-44.5.3-44.5.3ZM507.8,37.2h-10.9c0,0,0,11.1,0,11.1h-10.5c0,0,0-10.9,0-10.9h-10.8c0,0,0-10.4,0-10.4h10.8c0,0,0-10.8,0-10.8h10.5c0,0,0,10.7,0,10.7h10.9c0,0,0,10.4,0,10.4h0Z"/>
    <path class="cls-1" d="M715.1,62.3l-22,38.6,38.7,22,22-38.6-38.7-22ZM734.9,105l-9.5-5.4-5.4,9.5-9.1-5.2,5.4-9.5-9.4-5.3,5.2-9.1,9.4,5.3,5.3-9.3,9.1,5.2-5.3,9.3,9.5,5.4-5.2,9.1Z"/>
    <path class="cls-1" d="M901.9,230.3l-38.3,22.5,22.5,38.3,38.3-22.5-22.5-38.3ZM897.7,277.2l-5.5-9.4-9.5,5.5-5.3-9,9.5-5.5-5.5-9.3,9-5.3,5.5,9.3,9.2-5.4,5.3,9-9.2,5.4,5.5,9.4-9,5.3Z"/>
    <path class="cls-1" d="M979.6,469.3l-44.4.3.3,44.5,44.4-.3-.3-44.5ZM952.5,507.8v-10.9c0,0-11.1,0-11.1,0v-10.5c0,0,10.9,0,10.9,0v-10.8c0,0,10.4,0,10.4,0v10.8c0,0,10.8,0,10.8,0v10.5c0,0-10.7,0-10.7,0v10.9c0,0-10.4,0-10.4,0Z"/>
    <path class="cls-1" d="M927.5,715.1l-38.7-22-22,38.7,38.7,22,22-38.7ZM884.8,734.9l5.4-9.5-9.5-5.4,5.2-9.1,9.5,5.4,5.3-9.4,9.1,5.2-5.3,9.4,9.3,5.3-5.2,9.1-9.3-5.3-5.4,9.5-9.1-5.2Z"/>
    <path class="cls-1" d="M759.4,901.9l-22.5-38.3-38.3,22.5,22.5,38.3,38.3-22.5ZM712.5,897.7l9.4-5.5-5.5-9.5,9-5.3,5.5,9.5,9.3-5.5,5.3,9-9.3,5.5,5.4,9.2-9,5.3-5.4-9.2-9.4,5.5-5.3-9Z"/>
  </g>
</svg>