<?xml version="1.0" encoding="UTF-8"?>
<svg id="Layer_1" data-name="Layer 1" xmlns="http://www.w3.org/2000/svg" version="1.1" viewBox="0 0 511.2 512">
  <defs>
    <style>
      .cls-1 {
        fill: #000;
        stroke-width: 0px;
      }
    </style>
  </defs>
  <path class="cls-1" d="M333.2,512h-154c-3.1-1.2-6.3-.7-9.4-.8-20.5-.5-40.9-1.3-61-6.2-42.1-10.3-73.4-34.3-92.1-73.7-11.5-24.4-14.6-50.6-15.5-77.3C-.6,298.5,0,243,.5,187.6c.2-23.3.5-46.6,4.8-69.7C11.8,82.3,28.2,52.5,57.5,30.5,82.6,11.7,111.6,4.4,142.4,2c12.3-1,24.6-.4,36.8-2h153c11.9,1.6,23.9,1.1,35.8,1.9,20.9,1.5,41.4,4.9,60.5,13.5,47.1,21.2,71.9,58.9,79.6,108.9,1.4,8.8,2,17.8,3,26.7v206c-.3,1.8-.7,3.6-.8,5.4-.4,10.2-1.4,20.2-3.2,30.2-5.7,32.1-19.3,60-43.9,81.9-26.7,23.7-58.9,33-93.8,35.6-12.1.9-24.3.3-36.3,1.9ZM256.3,466c13.5,0,27,.1,40.5,0,29-.4,58,.2,86.8-3.9,39-5.6,66.5-30,76.3-67.4,4.2-15.9,4.8-32.2,5.3-48.6,1.5-47.5,1.1-95,.8-142.5-.2-24.8,0-49.7-3.7-74.3-6-41-31.3-68.3-71.5-77.4-17.9-4-36-4.3-54.2-4.7-48-.9-96-.9-144-.3-22.3.3-44.7.2-66.8,4.1-38.9,6.9-64.8,31.6-73.8,70-3.9,16.8-4.3,34-4.8,51.1-1.2,41.2-1.1,82.3-.7,123.5.3,28.8-.4,57.7,3.7,86.3,4.1,29,17,52.8,43,68,16.2,9.4,34.1,12.9,52.6,14.1,36.8,2.4,73.6,1.9,110.4,2Z"/>
  <path class="cls-1" d="M124.6,255.9c.1-72.6,59.3-131.6,131.8-131.4,72.8.3,131.7,59.4,131.2,131.8-.4,72.7-59.1,131.2-131.5,131.2-72.6,0-131.7-59.2-131.6-131.7ZM255.7,341.2c47.2.2,85.4-37.5,85.7-84.6.3-47.2-37.3-85.4-84.5-85.8-47.4-.4-85.7,37.5-85.9,84.9-.2,47.2,37.6,85.3,84.8,85.5Z"/>
  <path class="cls-1" d="M423.5,119.6c-.1,17.1-13.9,30.6-31.1,30.4-16.7-.2-30.3-14.1-30.2-30.9,0-16.9,13.7-30.4,30.7-30.3,17.2,0,30.7,13.6,30.6,30.8Z"/>
</svg>