<?xml version="1.0" encoding="UTF-8"?>
<svg id="Mode_Isolation" data-name="Mode Isolation" xmlns="http://www.w3.org/2000/svg" version="1.1" viewBox="0 0 431 83.1">
  <defs>
    <style>
      .cls-1 {
        fill: #1d1d1b;
        stroke-width: 0px;
      }
    </style>
  </defs>
  <path class="cls-1" d="M2.9,78.4V4.7h15.4v60.3h26.7v13.4s-42.2,0-42.2,0Z"/>
  <path class="cls-1" d="M58,78.4V4.7h15.4v73.7h-15.4Z"/>
  <path class="cls-1" d="M88.1,41.6c0-24,12.8-39.1,33.2-39.1s27.7,10.5,30.1,27.6l-14.3,2.7c-1.8-10.6-7.6-16.9-15.9-16.9s-17.7,9.7-17.7,25.7,7.7,25.5,19.9,25.5,17.2-7.5,19-19.7l14.5,2.4c-2.4,18.9-15.4,30.8-33.6,30.8s-35.2-15-35.2-39h0Z"/>
  <path class="cls-1" d="M164.9,29c0-7.1,5.1-12.1,12.1-12.1s12.1,5.1,12.1,12.1-5.1,12-12.1,12-12.1-5.1-12.1-12ZM183.7,29c0-3.9-2.8-6.8-6.7-6.8s-6.8,2.9-6.8,6.8,2.9,6.7,6.8,6.7,6.7-2.8,6.7-6.7ZM177.9,62l-1.9-1.3,31.2-44.3,2,1.3s-31.4,44.3-31.4,44.3ZM195.7,50.2c0-7.1,5.1-12.1,12.1-12.1s12.1,5.1,12.1,12.1-5.1,12-12.1,12-12.1-5.1-12.1-12ZM214.5,50.2c0-3.9-2.8-6.8-6.7-6.8s-6.8,2.9-6.8,6.8,2.8,6.7,6.8,6.7,6.7-2.8,6.7-6.7Z"/>
  <path class="cls-1" d="M267.5,69.6l-3.2-12.6c-1.1-4.3-4.1-7.5-8.1-7.5h-9.2v28.9h-15.4V4.7h30.1c16.4,0,26.7,8.8,26.7,22.7s-5.8,17-15.8,19.4h0c3.8,1.8,5.7,5,6.7,9.2l2.4,9.7c.5,2.4,1.5,3.9,3.4,3.9s3-1,4.5-3l3.8,7.6c-3.3,3.7-8.3,5.9-13.4,5.9s-11.1-4.2-12.6-10.6h0ZM247,38.5h13.5c7.6,0,12.5-4.2,12.5-10.9s-5-11.1-12.5-11.1h-13.5v22Z"/>
  <path class="cls-1" d="M305.3,78.4V4.7h19.1l26.3,55.2h.2V4.7h14.5v73.7h-19.2l-26.3-55h-.2v55h-14.4Z"/>
  <path class="cls-1" d="M382.3,78.4V4.7h44.8v12.6h-29.8v17.6h25.7v11.2h-25.7v19.7h30.9v12.5h-45.8Z"/>
</svg>