<?xml version="1.0" encoding="UTF-8"?>
<svg id="Layer_1" data-name="Layer 1" xmlns="http://www.w3.org/2000/svg" version="1.1" viewBox="0 0 619.64 789.93">
  <defs>
    <style>
      .cls-1 {
        fill: #000;
        stroke-width: 0px;
      }
    </style>
  </defs>
  <path class="cls-1" d="M309.19,784.61c-60.18-.47-119.78-5.84-178.07-21.71-28.24-7.69-55.52-17.76-80.3-33.7-14.43-9.28-27.22-20.32-36.32-35.14-6.79-11.05-10.6-23.06-10.31-36.02,2.49-111.24,50.44-197.45,143.07-258.87,9.76-6.47,9.96-6.16,19.17.68,87.29,64.85,205.16,63.26,291.74-4.04,2.78-2.16,4.65-2.57,7.74-.65,80.88,50.29,129.83,122.08,145.78,216.13,2.12,12.51,2.66,25.16,3.55,37.79,1.84,26.21-7.84,47.48-26.91,64.94-19.91,18.23-43.66,29.73-68.67,38.89-39.82,14.59-81.19,22.23-123.17,26.97-29.01,3.27-58.12,4.5-87.3,4.73Z"/>
  <path class="cls-1" d="M309.95,5.32c111.23-.12,201.67,90.56,201.69,202.22.01,111.45-90.29,201.54-202.15,201.65-111.35.12-201.68-90.4-201.69-202.1-.02-111.38,90.43-201.65,202.15-201.77Z"/>
</svg>