<?xml version="1.0" encoding="UTF-8"?>
<svg id="Layer_1" data-name="Layer 1" xmlns="http://www.w3.org/2000/svg" version="1.1" viewBox="0 0 511.2 512">
  <defs>
    <style>
      .cls-1 {
        fill: #000;
        stroke-width: 0px;
      }
    </style>
  </defs>
  <g id="enmEyc">
    <path class="cls-1" d="M256,511.9c-43.8,0-87.5.3-131.3-.1-17.4-.1-35.1-.1-52-5.5-40.7-12.9-64.1-41-70.6-82.9-3.1-19.9-2.5-40.2-2.5-60.4,0-77.9,0-155.9.2-233.8,0-16.9,0-33.9,4.1-50.4C14.4,37,41.4,11.9,83.3,3.1,97.7,0,112.6,0,127.3,0c85.8-.1,171.7,0,257.5.1,15,0,30.2.3,45,3.3,42.7,8.6,74,41.8,79.5,85.1,2.5,19.4,2.4,39,2.4,58.6,0,79,0,158-.2,237.1,0,17.4-.3,35-4.8,52.1-10.3,39.2-42.4,67.9-82.7,73.2-20.5,2.7-41.2,2.5-61.9,2.4-35.4,0-70.8,0-106.1,0h0ZM264.8,197.5c0,42.7,0,85.3,0,128,0,4.1-.4,8.2-1.2,12.3-8.5,40-56,56.8-85.5,34.2-13.3-10.1-22.3-22.3-24.1-39.4-4-38.5,30.1-68.7,68-60,4.3,1,4.5.9,4.4-3.7-.2-20.2-.5-40.4-.6-60.5,0-3.1-1.8-3.2-3.9-3.4-12-1.1-24.1-.8-35.9,1.6-63.7,12.7-105.9,70.1-98.2,134.6,5,42,27.4,73.3,63.7,93.5,37.1,20.6,76.4,20.5,113.8.8,43-22.6,65.9-59.4,66.7-108.4.7-43.3.2-86.6.2-129.8,0-1-.6-2.4.6-3,1.2-.7,1.9.7,2.8,1.2,25.6,16.7,53.7,25.7,84.3,26.3,3.3,0,4.6-.9,4.5-4.3-.3-19.8-.6-39.6-.8-59.4,0-2.2-.7-2.9-2.9-2.9-5.1-.1-10.2-.4-15.1-1.9-17.8-5.4-32.8-15.5-46.3-28.1-16.9-15.9-26.8-35.2-27.8-58.7-.1-3.1-1.1-3.8-4-3.8-19.5.1-38.9.1-58.4,0-3.4,0-4.5.8-4.5,4.4.1,43.5,0,87,0,130.6Z"/>
  </g>
</svg>